name rise30.3154peak39.0474fall46.5389.mot
datacolumns 19
datarows 27
range 20.87825500000000 20.92159200000000
endheader
time	ground_force1_vx	ground_force1_vy	ground_force1_vz	ground_force1_px	ground_force1_py	ground_force1_pz	ground_force2_vx	ground_force2_vy	ground_force2_vz	ground_force2_px	ground_force2_py	ground_force2_pz	ground_torque1_x	ground_torque1_y	ground_torque1_z	ground_torque2_x	ground_torque2_y	ground_torque2_z	
20.87825500000000	50.27475400000000	712.71573899999999	47.39110900000000	0.36331000000000	0.00000000000000	0.10932800000000	0.00000000000000	0.00000000000000	0.00000000000000	0.00000000000000	0.00000000000000	0.00000000000000	0.00000000000000	21.32140000000000	0.00000000000000	0.00000000000000	0.00000000000000	0.00000000000000	
20.87992700000000	49.45617500000000	714.93689500000005	47.44001200000000	0.36111500000000	0.00000000000000	0.10931600000000	0.00000000000000	0.00000000000000	0.00000000000000	0.00000000000000	0.00000000000000	0.00000000000000	0.00000000000000	21.34325900000000	0.00000000000000	0.00000000000000	0.00000000000000	0.00000000000000	
20.88159700000000	48.65802200000000	717.16310899999996	47.49953700000000	0.35895600000000	0.00000000000000	0.10930400000000	0.00000000000000	0.00000000000000	0.00000000000000	0.00000000000000	0.00000000000000	0.00000000000000	0.00000000000000	21.37201600000000	0.00000000000000	0.00000000000000	0.00000000000000	0.00000000000000	
20.88325900000000	47.88082200000000	719.39180399999998	47.56924500000000	0.35683700000000	0.00000000000000	0.10929300000000	0.00000000000000	0.00000000000000	0.00000000000000	0.00000000000000	0.00000000000000	0.00000000000000	0.00000000000000	21.40740800000000	0.00000000000000	0.00000000000000	0.00000000000000	0.00000000000000	
20.88492600000000	47.12497700000000	721.62016600000004	47.64859700000000	0.35476000000000	0.00000000000000	0.10928000000000	0.00000000000000	0.00000000000000	0.00000000000000	0.00000000000000	0.00000000000000	0.00000000000000	0.00000000000000	21.44911600000000	0.00000000000000	0.00000000000000	0.00000000000000	0.00000000000000	
20.88659400000000	46.39077300000000	723.84515999999996	47.73695900000000	0.35272800000000	0.00000000000000	0.10926800000000	0.00000000000000	0.00000000000000	0.00000000000000	0.00000000000000	0.00000000000000	0.00000000000000	0.00000000000000	21.49676800000000	0.00000000000000	0.00000000000000	0.00000000000000	0.00000000000000	
20.88826000000000	45.67837900000000	726.06355699999995	47.83360700000000	0.35074400000000	0.00000000000000	0.10925500000000	0.00000000000000	0.00000000000000	0.00000000000000	0.00000000000000	0.00000000000000	0.00000000000000	0.00000000000000	21.54993900000000	0.00000000000000	0.00000000000000	0.00000000000000	0.00000000000000	
20.88992100000000	44.98785000000000	728.27195600000005	47.93773600000000	0.34881000000000	0.00000000000000	0.10924000000000	0.00000000000000	0.00000000000000	0.00000000000000	0.00000000000000	0.00000000000000	0.00000000000000	0.00000000000000	21.60816200000000	0.00000000000000	0.00000000000000	0.00000000000000	0.00000000000000	
20.89159100000000	44.31913800000000	730.46680900000001	48.04846600000000	0.34692900000000	0.00000000000000	0.10922500000000	0.00000000000000	0.00000000000000	0.00000000000000	0.00000000000000	0.00000000000000	0.00000000000000	0.00000000000000	21.67092800000000	0.00000000000000	0.00000000000000	0.00000000000000	0.00000000000000	
20.89325600000000	43.67208900000000	732.64444100000003	48.16485100000000	0.34510100000000	0.00000000000000	0.10920900000000	0.00000000000000	0.00000000000000	0.00000000000000	0.00000000000000	0.00000000000000	0.00000000000000	0.00000000000000	21.73769000000000	0.00000000000000	0.00000000000000	0.00000000000000	0.00000000000000	
20.89492500000000	43.04645500000000	734.80107999999996	48.28588300000000	0.34333000000000	0.00000000000000	0.10919100000000	0.00000000000000	0.00000000000000	0.00000000000000	0.00000000000000	0.00000000000000	0.00000000000000	0.00000000000000	21.80787200000000	0.00000000000000	0.00000000000000	0.00000000000000	0.00000000000000	
20.89658900000000	42.44189500000000	736.93287399999997	48.41050600000000	0.34161600000000	0.00000000000000	0.10917100000000	0.00000000000000	0.00000000000000	0.00000000000000	0.00000000000000	0.00000000000000	0.00000000000000	0.00000000000000	21.88087100000000	0.00000000000000	0.00000000000000	0.00000000000000	0.00000000000000	
20.89825700000000	41.85798200000000	739.03592000000003	48.53761800000000	0.33996100000000	0.00000000000000	0.10915000000000	0.00000000000000	0.00000000000000	0.00000000000000	0.00000000000000	0.00000000000000	0.00000000000000	0.00000000000000	21.95606100000000	0.00000000000000	0.00000000000000	0.00000000000000	0.00000000000000	
20.89991900000000	41.29420900000000	741.10628299999996	48.66608500000000	0.33836500000000	0.00000000000000	0.10912600000000	0.00000000000000	0.00000000000000	0.00000000000000	0.00000000000000	0.00000000000000	0.00000000000000	0.00000000000000	22.03279800000000	0.00000000000000	0.00000000000000	0.00000000000000	0.00000000000000	
20.90158800000000	40.74999700000000	743.14002100000005	48.79474500000000	0.33682900000000	0.00000000000000	0.10910100000000	0.00000000000000	0.00000000000000	0.00000000000000	0.00000000000000	0.00000000000000	0.00000000000000	0.00000000000000	22.11042700000000	0.00000000000000	0.00000000000000	0.00000000000000	0.00000000000000	
20.90325300000000	40.22469900000000	745.13320699999997	48.92241700000000	0.33535400000000	0.00000000000000	0.10907300000000	0.00000000000000	0.00000000000000	0.00000000000000	0.00000000000000	0.00000000000000	0.00000000000000	0.00000000000000	22.18828100000000	0.00000000000000	0.00000000000000	0.00000000000000	0.00000000000000	
20.90492900000000	39.71760600000000	747.08194900000001	49.04791400000000	0.33393900000000	0.00000000000000	0.10904300000000	0.00000000000000	0.00000000000000	0.00000000000000	0.00000000000000	0.00000000000000	0.00000000000000	0.00000000000000	22.26569000000000	0.00000000000000	0.00000000000000	0.00000000000000	0.00000000000000	
20.90658800000000	39.22795700000000	748.98241299999995	49.17004500000000	0.33258600000000	0.00000000000000	0.10901000000000	0.00000000000000	0.00000000000000	0.00000000000000	0.00000000000000	0.00000000000000	0.00000000000000	0.00000000000000	22.34198500000000	0.00000000000000	0.00000000000000	0.00000000000000	0.00000000000000	
20.90825500000000	38.75494200000000	750.83083899999997	49.28762600000000	0.33129400000000	0.00000000000000	0.10897400000000	0.00000000000000	0.00000000000000	0.00000000000000	0.00000000000000	0.00000000000000	0.00000000000000	0.00000000000000	22.41649700000000	0.00000000000000	0.00000000000000	0.00000000000000	0.00000000000000	
20.90992000000000	38.29771000000000	752.62356399999999	49.39949100000000	0.33006200000000	0.00000000000000	0.10893600000000	0.00000000000000	0.00000000000000	0.00000000000000	0.00000000000000	0.00000000000000	0.00000000000000	0.00000000000000	22.48856700000000	0.00000000000000	0.00000000000000	0.00000000000000	0.00000000000000	
20.91159100000000	37.85537500000000	754.35703699999999	49.50449300000000	0.32889000000000	0.00000000000000	0.10889500000000	0.00000000000000	0.00000000000000	0.00000000000000	0.00000000000000	0.00000000000000	0.00000000000000	0.00000000000000	22.55754700000000	0.00000000000000	0.00000000000000	0.00000000000000	0.00000000000000	
20.91325800000000	37.42702400000000	756.02783699999998	49.60151900000000	0.32777700000000	0.00000000000000	0.10885000000000	0.00000000000000	0.00000000000000	0.00000000000000	0.00000000000000	0.00000000000000	0.00000000000000	0.00000000000000	22.62280100000000	0.00000000000000	0.00000000000000	0.00000000000000	0.00000000000000	
20.91492100000000	37.01172100000000	757.63268900000003	49.68948900000000	0.32672200000000	0.00000000000000	0.10880300000000	0.00000000000000	0.00000000000000	0.00000000000000	0.00000000000000	0.00000000000000	0.00000000000000	0.00000000000000	22.68371400000000	0.00000000000000	0.00000000000000	0.00000000000000	0.00000000000000	
20.91658700000000	36.60851700000000	759.16847800000005	49.76737200000000	0.32572400000000	0.00000000000000	0.10875300000000	0.00000000000000	0.00000000000000	0.00000000000000	0.00000000000000	0.00000000000000	0.00000000000000	0.00000000000000	22.73969000000000	0.00000000000000	0.00000000000000	0.00000000000000	0.00000000000000	
20.91825900000000	36.21645100000000	760.63226199999997	49.83418300000000	0.32478100000000	0.00000000000000	0.10870000000000	0.00000000000000	0.00000000000000	0.00000000000000	0.00000000000000	0.00000000000000	0.00000000000000	0.00000000000000	22.79015900000000	0.00000000000000	0.00000000000000	0.00000000000000	0.00000000000000	
20.91992400000000	35.83455800000000	762.02128400000004	49.88899800000000	0.32389300000000	0.00000000000000	0.10864300000000	0.00000000000000	0.00000000000000	0.00000000000000	0.00000000000000	0.00000000000000	0.00000000000000	0.00000000000000	22.83457700000000	0.00000000000000	0.00000000000000	0.00000000000000	0.00000000000000	
20.92159200000000	35.46187800000000	763.33298400000001	49.93095100000000	0.32305800000000	0.00000000000000	0.10858400000000	0.00000000000000	0.00000000000000	0.00000000000000	0.00000000000000	0.00000000000000	0.00000000000000	0.00000000000000	22.87243000000000	0.00000000000000	0.00000000000000	0.00000000000000	0.00000000000000	
